#N canvas 0 0 1440 872 12;
#X floatatom 24 243 5 0 0 0 - - - 0;
#X obj 75 639 *~, f 6;
#X obj 76 679 dac~;
#X floatatom 199 355 5 0 0 0 - - - 0;
#X floatatom 55 337 5 0 0 0 - - - 0;
#X text 98 337 Harmonicity;
#X text 61 243 Freq;
#X text 239 358 Modulation index;
#X text 543 306 Decay time;
#X floatatom 504 306 5 0 0 0 - - - 0;
#X text 470 439 Decay time;
#X floatatom 429 439 5 0 0 0 - - - 0;
#X obj 1031 625 r notes;
#N canvas 227 -1120 450 483 FM 1;
#N canvas 685 -1104 528 418 FM_synth 1;
#X obj 112 275 +~;
#X obj 125 142 *~;
#X text 213 99 Harmonicity;
#X text 84 114 Freq;
#X obj 208 244 *~;
#X obj 308 209 *~;
#X obj 110 346 outlet~;
#X obj 161 99 inlet~;
#X obj 27 115 inlet~, f 7;
#X obj 340 156 inlet~;
#X text 388 155 modulation index;
#X obj 113 308 osc~;
#X obj 209 208 osc~ 40;
#X connect 0 0 11 0;
#X connect 1 0 5 0;
#X connect 1 0 12 0;
#X connect 4 0 0 1;
#X connect 5 0 4 1;
#X connect 7 0 1 1;
#X connect 8 0 1 0;
#X connect 8 0 0 0;
#X connect 9 0 5 1;
#X connect 11 0 6 0;
#X connect 12 0 4 0;
#X restore 60 273 pd FM_synth;
#N canvas 92 117 450 407 env 0;
#X obj 83 99 bng 19 250 50 0 empty empty empty 0 -10 0 12 #fcfcfc #000000 #000000;
#X obj 197 138 del 10;
#X obj 83 144 pack 1 3;
#X obj 196 174 pack 0 500;
#X obj 83 61 inlet;
#X obj 313 113 inlet;
#X floatatom 312 141 5 0 0 0 - - - 0;
#X text 354 141 decay time;
#X obj 82 223 line~;
#X obj 86 254 *~;
#X obj 85 287 *~;
#X obj 85 321 outlet~;
#X text 113 254 Square the output - steeper decay curve;
#X text 113 287 Square the output;
#X connect 0 0 2 0;
#X connect 0 0 1 0;
#X connect 1 0 3 0;
#X connect 2 0 8 0;
#X connect 3 0 8 0;
#X connect 4 0 0 0;
#X connect 5 0 6 0;
#X connect 6 0 3 1;
#X connect 8 0 9 1;
#X connect 8 0 9 0;
#X connect 9 0 10 0;
#X connect 9 0 10 1;
#X connect 10 0 11 0;
#X restore 178 208 pd env;
#X obj 27 183 t f b;
#N canvas 92 117 450 407 env 0;
#X obj 83 99 bng 19 250 50 0 empty empty empty 0 -10 0 12 #fcfcfc #000000 #000000;
#X obj 197 138 del 10;
#X obj 83 144 pack 1 3;
#X obj 196 174 pack 0 500;
#X obj 83 61 inlet;
#X obj 313 113 inlet;
#X floatatom 312 141 5 0 0 0 - - - 0;
#X text 354 141 decay time;
#X obj 82 223 line~;
#X obj 86 254 *~;
#X obj 85 287 *~;
#X obj 85 321 outlet~;
#X text 113 254 Square the output - steeper decay curve;
#X text 113 287 Square the output;
#X connect 0 0 2 0;
#X connect 0 0 1 0;
#X connect 1 0 3 0;
#X connect 2 0 8 0;
#X connect 3 0 8 0;
#X connect 4 0 0 0;
#X connect 5 0 6 0;
#X connect 6 0 3 1;
#X connect 8 0 9 1;
#X connect 8 0 9 0;
#X connect 9 0 10 0;
#X connect 9 0 10 1;
#X connect 10 0 11 0;
#X restore 214 330 pd env;
#X obj 57 334 *~;
#X obj 175 248 *~;
#X text 228 208 comment;
#X obj 29 116 inlet;
#X obj 241 169 inlet;
#X obj 282 288 inlet;
#X obj 239 227 inlet;
#X obj 85 229 inlet;
#X obj 51 372 outlet~;
#X connect 0 0 4 0;
#X connect 1 0 5 0;
#X connect 2 0 0 0;
#X connect 2 1 1 0;
#X connect 2 1 3 0;
#X connect 3 0 4 1;
#X connect 4 0 12 0;
#X connect 5 0 0 2;
#X connect 7 0 2 0;
#X connect 8 0 1 1;
#X connect 9 0 3 1;
#X connect 10 0 5 1;
#X connect 11 0 0 1;
#X restore 58 530 pd FM;
#X f 16;
#N canvas 860 -413 529 338 manay_notes 1;
#X obj 20 7 inlet;
#X obj 16 84 f 0;
#X obj 16 112 + 1;
#X obj 16 137 % 8;
#X floatatom 16 164 5 0 0 0 - - - 0;
#X obj 15 189 tabread pitches;
#X floatatom 17 218 5 0 0 0 - - - 0;
#X obj 16 277 outlet;
#X obj 253 60 loadbang;
#X msg 250 89 \; pitches 0 60 67 62 58 63 70 72 65;
#X obj 251 163 table pitches;
#X obj 13 248 - 50;
#X obj 18 52 metro 300;
#X connect 0 0 12 0;
#X connect 1 0 2 0;
#X connect 2 0 3 0;
#X connect 3 0 4 0;
#X connect 3 0 1 1;
#X connect 4 0 5 0;
#X connect 5 0 6 0;
#X connect 6 0 11 0;
#X connect 8 0 9 0;
#X connect 11 0 7 0;
#X connect 12 0 1 0;
#X restore 1167 517 pd manay_notes;
#X obj 1166 483 tgl 19 0 empty empty empty 0 -10 0 12 #fcfcfc #000000 #000000 0 1;
#X floatatom 1184 604 5 0 0 0 - - - 0;
#X obj 1184 627 s notes;
#N canvas 208 233 450 300 two_notes 0;
#X obj 155 79 metro 500;
#X obj 156 44 inlet;
#X obj 155 109 tgl 19 0 empty empty empty 0 -10 0 12 #fcfcfc #000000 #000000 0 1;
#X obj 155 133 sel 0 1;
#X msg 155 157 55;
#X msg 155 157;
#X msg 200 157 67;
#X floatatom 156 193 5 0 0 0 - - - 0;
#X obj 157 227 outlet;
#X connect 0 0 2 0;
#X connect 1 0 0 0;
#X connect 2 0 3 0;
#X connect 3 0 4 0;
#X connect 3 0 5 0;
#X connect 3 1 6 0;
#X connect 4 0 7 0;
#X connect 6 0 7 0;
#X connect 7 0 8 0;
#X restore 1057 505 pd two_notes;
#X obj 1056 476 tgl 19 0 empty empty empty 0 -10 0 12 #fcfcfc #000000 #000000 0 1;
#X floatatom 1057 534 5 0 0 0 - - - 0;
#X obj 18 35 keyname;
#X msg 15 131 261.6;
#X msg 65 135 277.18;
#X msg 131 134 293.66;
#X msg 192 133 311.12;
#X msg 237 133 329.99;
#X msg 284 132 349.228;
#X msg 353 132 369.994;
#X msg 415 134 391.995;
#X msg 478 134 415.304;
#X msg 540 134 440;
#X msg 578 133 466.163;
#X msg 647 125 493.883;
#X obj 17 92 select q z s e d f t g y h u j k, f 60;
#X msg 720 123 523.251;
#X obj 713 530 select = ù;
#X obj 715 504 keyname;
#X msg 763 560 0.05;
#X obj 740 589 +;
#X floatatom 740 613 5 0 0 0 - - - 0;
#X msg 701 560 -0.05;
#N canvas 276 -449 560 321 volume 1;
#X obj 64 78 select = ù;
#X msg 114 108 0.05;
#X obj 91 137 +;
#X floatatom 91 161 5 0 0 0 - - - 0;
#X msg 52 108 -0.05;
#X obj 92 204 outlet;
#X obj 65 42 inlet;
#X connect 0 0 4 0;
#X connect 0 1 1 0;
#X connect 1 0 2 0;
#X connect 2 0 3 0;
#X connect 3 0 2 1;
#X connect 3 0 5 0;
#X connect 4 0 2 0;
#X connect 6 0 0 0;
#X restore 129 583 pd volume;
#X obj 163 557 keyname;
#X floatatom 131 615 5 0 0 0 - - - 0;
#N canvas 121 146 473 393 Harmonicity 1;
#X obj 76 127 +;
#X floatatom 76 151 5 0 0 0 - - - 0;
#X obj 49 68 select ` $;
#X msg 37 98 -1;
#X msg 99 98 1;
#X obj 51 31 inlet;
#X obj 76 187 outlet;
#X connect 0 0 1 0;
#X connect 1 0 0 1;
#X connect 1 0 6 0;
#X connect 2 0 3 0;
#X connect 2 1 4 0;
#X connect 3 0 0 0;
#X connect 4 0 0 0;
#X connect 5 0 2 0;
#X restore 55 303 pd Harmonicity;
#X obj 70 266 keyname;
#N canvas 0 28 1440 872 Modulation 1;
#X obj 103 119 +;
#X floatatom 103 143 5 0 0 0 - - - 0;
#X obj 76 60 select m p;
#X msg 65 90 -1;
#X msg 126 90 1;
#X obj 79 32 inlet;
#X obj 99 178 outlet;
#X connect 0 0 1 0;
#X connect 1 0 0 1;
#X connect 1 0 6 0;
#X connect 2 0 3 0;
#X connect 2 1 4 0;
#X connect 3 0 0 0;
#X connect 4 0 0 0;
#X connect 5 0 2 0;
#X restore 201 322 pd Modulation;
#X obj 200 289 keyname;
#N canvas 0 28 1440 872 Env_1 1;
#X obj 114 132 +;
#X floatatom 114 156 5 0 0 0 - - - 0;
#X obj 84 45 inlet;
#X msg 75 103 -1;
#X msg 137 103 1;
#X obj 105 196 outlet;
#X obj 87 73 select l o;
#X connect 0 0 1 0;
#X connect 1 0 0 1;
#X connect 1 0 5 0;
#X connect 2 0 6 0;
#X connect 3 0 0 0;
#X connect 4 0 0 0;
#X connect 6 0 3 0;
#X connect 6 1 4 0;
#X restore 506 274 pd Env_1;
#X obj 505 243 keyname;
#N canvas 0 28 1440 872 Env_2 1;
#X obj 95 116 +;
#X obj 68 57 select & é;
#X msg 56 87 -1;
#X obj 98 180 outlet;
#X obj 70 28 inlet;
#X floatatom 99 150 5 0 0 0 - - - 0;
#X msg 118 87 1;
#X connect 0 0 5 0;
#X connect 1 0 2 0;
#X connect 1 1 6 0;
#X connect 2 0 0 0;
#X connect 4 0 1 0;
#X connect 5 0 3 0;
#X connect 6 0 0 0;
#X restore 436 403 pd Env_2;
#X obj 454 369 keyname;
#X connect 0 0 13 0;
#X connect 1 0 2 0;
#X connect 1 0 2 1;
#X connect 3 0 13 2;
#X connect 4 0 13 1;
#X connect 9 0 13 3;
#X connect 11 0 13 4;
#X connect 13 0 1 0;
#X connect 14 0 16 0;
#X connect 15 0 14 0;
#X connect 16 0 17 0;
#X connect 18 0 20 0;
#X connect 19 0 18 0;
#X connect 20 0 16 0;
#X connect 21 1 34 0;
#X connect 22 0 0 0;
#X connect 23 0 0 0;
#X connect 24 0 0 0;
#X connect 25 0 0 0;
#X connect 26 0 0 0;
#X connect 27 0 0 0;
#X connect 28 0 0 0;
#X connect 29 0 0 0;
#X connect 30 0 0 0;
#X connect 31 0 0 0;
#X connect 32 0 0 0;
#X connect 33 0 0 0;
#X connect 34 0 22 0;
#X connect 34 1 23 0;
#X connect 34 2 24 0;
#X connect 34 3 25 0;
#X connect 34 4 26 0;
#X connect 34 5 27 0;
#X connect 34 6 28 0;
#X connect 34 7 29 0;
#X connect 34 8 30 0;
#X connect 34 9 31 0;
#X connect 34 10 32 0;
#X connect 34 11 33 0;
#X connect 34 12 35 0;
#X connect 35 0 0 0;
#X connect 36 0 41 0;
#X connect 36 1 38 0;
#X connect 37 1 36 0;
#X connect 38 0 39 0;
#X connect 39 0 40 0;
#X connect 40 0 39 1;
#X connect 41 0 39 0;
#X connect 42 0 44 0;
#X connect 43 1 42 0;
#X connect 44 0 1 1;
#X connect 45 0 4 0;
#X connect 46 1 45 0;
#X connect 47 0 3 0;
#X connect 48 1 47 0;
#X connect 49 0 9 0;
#X connect 50 1 49 0;
#X connect 51 0 11 0;
#X connect 52 1 51 0;
